<svg width="34" height="33" viewBox="0 0 34 33" fill="none" xmlns="http://www.w3.org/2000/svg">
<g clip-path="url(#clip0_1_654)">
<path d="M23.563 0.0165145C23.4928 -0.0618605 20.9663 0.047452 18.7677 2.43376C16.569 4.81801 16.9073 7.55289 16.9568 7.62301C17.0063 7.69314 20.0918 7.80245 22.0615 5.02839C24.0312 2.25433 23.6331 0.096952 23.563 0.0165145ZM30.3981 24.2158C30.2991 24.0178 25.6028 21.6707 26.04 17.158C26.4773 12.6452 29.4947 11.4056 29.5422 11.2716C29.5896 11.1375 28.3108 9.6422 26.9558 8.88527C25.9607 8.35211 24.8596 8.04639 23.7321 7.99014C23.5093 7.98395 22.7359 7.7942 21.1457 8.22939C20.098 8.51608 17.7364 9.4442 17.0867 9.48133C16.435 9.51845 14.4962 8.4047 12.411 8.10976C11.0766 7.85195 9.66172 8.37995 8.64903 8.78627C7.6384 9.19052 5.71615 10.3414 4.3714 13.4001C3.02665 16.4567 3.72997 21.2995 4.23322 22.8051C4.73647 24.3107 5.52228 26.7733 6.85878 28.5718C8.04678 30.6013 9.62253 32.01 10.2805 32.4885C10.9384 32.967 12.7947 33.2846 14.0817 32.6267C15.117 31.9915 16.9857 31.6264 17.724 31.6532C18.4603 31.68 19.9123 31.9708 21.3994 32.7649C22.5771 33.1712 23.6908 33.0021 24.8067 32.5483C25.9225 32.0925 27.5374 30.3641 29.4225 26.86C30.1375 25.2306 30.4627 24.3492 30.3981 24.2158Z" fill="#222222"/>
<path d="M23.563 0.0165145C23.4928 -0.0618605 20.9663 0.047452 18.7677 2.43376C16.569 4.81801 16.9073 7.55289 16.9568 7.62301C17.0063 7.69314 20.0918 7.80245 22.0615 5.02839C24.0312 2.25433 23.6331 0.096952 23.563 0.0165145ZM30.3981 24.2158C30.2991 24.0178 25.6028 21.6707 26.04 17.158C26.4773 12.6452 29.4947 11.4056 29.5422 11.2716C29.5896 11.1375 28.3108 9.6422 26.9558 8.88527C25.9607 8.35211 24.8596 8.04639 23.7321 7.99014C23.5093 7.98395 22.7359 7.7942 21.1457 8.22939C20.098 8.51608 17.7364 9.4442 17.0867 9.48133C16.435 9.51845 14.4962 8.4047 12.411 8.10976C11.0766 7.85195 9.66172 8.37995 8.64903 8.78627C7.6384 9.19052 5.71615 10.3414 4.3714 13.4001C3.02665 16.4567 3.72997 21.2995 4.23322 22.8051C4.73647 24.3107 5.52228 26.7733 6.85878 28.5718C8.04678 30.6013 9.62253 32.01 10.2805 32.4885C10.9384 32.967 12.7947 33.2846 14.0817 32.6267C15.117 31.9915 16.9857 31.6264 17.724 31.6532C18.4603 31.68 19.9123 31.9708 21.3994 32.7649C22.5771 33.1712 23.6908 33.0021 24.8067 32.5483C25.9225 32.0925 27.5374 30.3641 29.4225 26.86C30.1375 25.2306 30.4627 24.3492 30.3981 24.2158Z" fill="#222222"/>
</g>
<defs>
<clipPath id="clip0_1_654">
<rect width="33" height="33" fill="white" transform="translate(0.5)"/>
</clipPath>
</defs>
</svg>
