<svg width="100" height="226" viewBox="0 0 100 226" fill="none" xmlns="http://www.w3.org/2000/svg">
	<rect width="40" height="78" fill="white" />
	<path xmlns="http://www.w3.org/2000/svg" d="M13.096 0.767998L14.12 1.79199C8.36 7.424 3.368 15.616 2.984 22.784C4.904 20.992 6.952 20.992 8.104 20.992C11.688 20.992 14.632 23.552 14.632 27.648C14.632 31.872 11.816 34.816 7.848 34.816C4.008 34.816 0.808001 31.744 0.808001 25.472C0.808001 16.512 6.312 7.03999 13.096 0.767998ZM35.624 0.767998L36.648 1.79199C30.888 7.424 25.896 15.616 25.512 22.784C27.432 20.992 29.48 20.992 30.632 20.992C34.216 20.992 37.16 23.552 37.16 27.648C37.16 31.872 34.344 34.816 30.376 34.816C26.536 34.816 23.336 31.744 23.336 25.472C23.336 16.512 28.84 7.03999 35.624 0.767998Z" fill="#54893D"/>
</svg>

