<svg width="125" height="125" viewBox="0 0 125 125" fill="none" xmlns="http://www.w3.org/2000/svg">
<path d="M113.281 24.3073C109.992 23.0522 106.357 23.0522 103.068 24.3073C71.224 38.1979 79.1927 101.38 44.4557 100.688C27.6901 100.357 11.7292 86.1979 11.7188 62.5C11.7083 38.8021 27.6901 24.6432 44.4531 24.3073C79.1927 23.6198 71.2188 86.8047 103.068 100.693C106.357 101.948 109.992 101.948 113.281 100.693" stroke="#0D2901" stroke-linecap="round" stroke-linejoin="round"/>
<path d="M23.6849 74.3932C25.612 76.0078 27.6954 76.7526 32.3698 76.7526H34.7396C35.6572 76.7515 36.5655 76.5698 37.4128 76.2177C38.2601 75.8656 39.0298 75.3501 39.6779 74.7006C40.326 74.0511 40.8398 73.2803 41.1899 72.4322C41.5401 71.5841 41.7198 70.6753 41.7188 69.7578C41.7202 68.84 41.5407 67.931 41.1907 67.0826C40.8407 66.2342 40.3269 65.4631 39.6788 64.8133C39.0307 64.1635 38.2609 63.6477 37.4134 63.2955C36.566 62.9432 35.6574 62.7614 34.7396 62.7604H30C29.0825 62.7594 28.1741 62.5776 27.3268 62.2255C26.4795 61.8735 25.7099 61.3579 25.0618 60.7084C24.4137 60.0589 23.8999 59.2881 23.5497 58.44C23.1996 57.5919 23.0199 56.6831 23.0209 55.7656C23.0195 54.8478 23.199 53.9388 23.549 53.0904C23.899 52.242 24.4128 51.4709 25.0609 50.8211C25.709 50.1713 26.4788 49.6555 27.3262 49.3033C28.1737 48.951 29.0823 48.7692 30 48.7682H32.3698C37.0443 48.7682 39.1277 49.5104 41.0547 51.1302M46.7865 74.3932C48.7136 76.0078 50.7969 76.7526 55.4714 76.7526H57.8412C58.7587 76.7515 59.6671 76.5698 60.5144 76.2177C61.3617 75.8656 62.1314 75.3501 62.7794 74.7006C63.4275 74.0511 63.9413 73.2803 64.2915 72.4322C64.6417 71.5841 64.8214 70.6753 64.8204 69.7578C64.8217 68.84 64.6423 67.931 64.2922 67.0826C63.9422 66.2342 63.4285 65.4631 62.7804 64.8133C62.1323 64.1635 61.3625 63.6477 60.515 63.2955C59.6675 62.9432 58.759 62.7614 57.8412 62.7604H53.1016C52.1841 62.7594 51.2757 62.5776 50.4284 62.2255C49.5811 61.8735 48.8114 61.3579 48.1634 60.7084C47.5153 60.0589 47.0015 59.2881 46.6513 58.44C46.3011 57.5919 46.1214 56.6831 46.1224 55.7656C46.1211 54.8478 46.3005 53.9388 46.6506 53.0904C47.0006 52.242 47.5143 51.4709 48.1624 50.8211C48.8105 50.1713 49.5803 49.6555 50.4278 49.3033C51.2753 48.951 52.1839 48.7692 53.1016 48.7682H55.4714C60.1485 48.7682 62.2292 49.5104 64.1563 51.1302" stroke="#0D2901" stroke-linecap="round" stroke-linejoin="round"/>
</svg>
