<svg width="16" height="16" viewBox="0 0 16 16" fill="none" xmlns="http://www.w3.org/2000/svg">
<path d="M3.3335 2H12.0002C12.5306 2 13.0393 2.21071 13.4144 2.58579C13.7894 2.96086 14.0002 3.46957 14.0002 4V10C14.0002 10.5304 13.7894 11.0391 13.4144 11.4142C13.0393 11.7893 12.5306 12 12.0002 12H8.94016L6.4735 14.4733C6.3535 14.5933 6.18683 14.6667 6.00016 14.6667C5.82335 14.6667 5.65378 14.5964 5.52876 14.4714C5.40373 14.3464 5.3335 14.1768 5.3335 14V12H3.3335C2.80306 12 2.29436 11.7893 1.91928 11.4142C1.54421 11.0391 1.3335 10.5304 1.3335 10V4C1.3335 3.46957 1.54421 2.96086 1.91928 2.58579C2.29436 2.21071 2.80306 2 3.3335 2ZM12.0002 2.66667H3.3335C2.97987 2.66667 2.64074 2.80714 2.39069 3.05719C2.14064 3.30724 2.00016 3.64638 2.00016 4V10C2.00016 10.3536 2.14064 10.6928 2.39069 10.9428C2.64074 11.1929 2.97987 11.3333 3.3335 11.3333H6.00016V14L8.66683 11.3333H12.0002C12.3538 11.3333 12.6929 11.1929 12.943 10.9428C13.193 10.6928 13.3335 10.3536 13.3335 10V4C13.3335 3.64638 13.193 3.30724 12.943 3.05719C12.6929 2.80714 12.3538 2.66667 12.0002 2.66667Z" fill="#555555"/>
</svg>
