<svg width="127" height="125" viewBox="0 0 127 125" fill="none" xmlns="http://www.w3.org/2000/svg">
<path d="M21.9355 95.0899C20.8694 95.1063 19.8107 94.9106 18.8209 94.514C17.8312 94.1173 16.9302 93.5278 16.1705 92.7797C15.4108 92.0315 14.8075 91.1397 14.3958 90.1562C13.984 89.1726 13.772 88.117 13.7722 87.0508C13.7723 85.9845 13.9845 84.9289 14.3965 83.9455C14.8085 82.9621 15.412 82.0704 16.1719 81.3225C16.9318 80.5745 17.8329 79.9852 18.8227 79.5888C19.8126 79.1924 20.8714 78.9969 21.9375 79.0137C24.0476 79.0468 26.0601 79.9084 27.5405 81.4124C29.0209 82.9165 29.8505 84.9423 29.8503 87.0527C29.85 89.1631 29.0199 91.1888 27.5391 92.6924C26.0584 94.1961 24.0457 95.0572 21.9355 95.0899ZM5.74805 124.242V108.492C5.74805 102.813 10.4141 98.1973 16.0996 98.1973H27.1992C32.8848 98.1973 37.9629 102.813 37.9629 108.492V124.242H5.74805ZM105.27 94.4082C107.401 94.4056 109.444 93.5575 110.951 92.0499C112.458 90.5424 113.305 88.4986 113.307 86.3672C113.33 85.2968 113.14 84.2325 112.746 83.2368C112.353 82.241 111.765 81.3339 111.016 80.5685C110.268 79.8032 109.374 79.1951 108.387 78.7799C107.4 78.3648 106.34 78.1509 105.27 78.1509C104.199 78.1509 103.139 78.3648 102.152 78.7799C101.165 79.1951 100.271 79.8032 99.5227 80.5685C98.7741 81.3339 98.1859 82.241 97.7926 83.2368C97.3993 84.2325 97.2088 85.2968 97.2324 86.3672C97.234 88.4986 98.0811 90.5424 99.5879 92.0499C101.095 93.5575 103.138 94.4056 105.27 94.4082ZM121.449 124.242V108.492C121.449 102.813 116.783 98.1973 111.094 98.1973H100.006C94.3105 98.1973 89.2402 102.813 89.2402 108.492V124.242H121.449ZM63.5879 95.0469C59.0957 95.0469 55.457 91.4355 55.457 86.9844C55.457 82.5332 59.0957 78.9199 63.5879 78.9199C68.0762 78.9199 71.7148 82.5312 71.7148 86.9844C71.7148 91.4375 68.0781 95.0469 63.5879 95.0469ZM44.0078 124.242L50.4062 106.811C52.9688 97.9063 60.4316 98.1816 60.4316 98.1816H66.7656C66.7656 98.1816 74.2246 97.9082 76.791 106.811L83.1894 124.242H44.0078ZM63.5879 68.7422V49.6699L60.4219 46.5039V65.5664H12.5254V4.92578H60.4219V36.0781L63.5879 39.2422V1.75586H9.37109V68.7402L63.5879 68.7422Z" fill="#0D2901"/>
<path d="M36.0079 17.959C37.1096 17.9119 38.1506 17.441 38.9136 16.6448C39.6765 15.8485 40.1025 14.7883 40.1025 13.6855C40.1025 12.5828 39.6765 11.5226 38.9136 10.7263C38.1506 9.93006 37.1096 9.45923 36.0079 9.41211C34.8745 9.41211 33.7875 9.86235 32.9861 10.6638C32.1847 11.4652 31.7344 12.5522 31.7344 13.6855C31.7344 14.8189 32.1847 15.9059 32.9861 16.7073C33.7875 17.5087 34.8745 17.959 36.0079 17.959ZM50.1192 35.7188C50.1192 35.7188 46.6133 23.8105 46.6075 23.8008C45.211 19.166 41.3008 19.3047 41.3008 19.3047H30.7227C30.7227 19.3047 26.8067 19.166 25.4122 23.8008L21.9063 35.7188C21.8338 35.9498 21.808 36.1929 21.8305 36.434C21.853 36.6751 21.9233 36.9092 22.0374 37.1228C22.1514 37.3364 22.3069 37.5251 22.4947 37.678C22.6825 37.8308 22.8988 37.9447 23.1311 38.013C23.3634 38.0812 23.607 38.1025 23.8476 38.0756C24.0883 38.0486 24.3211 37.974 24.5326 37.856C24.744 37.7381 24.9299 37.5792 25.0792 37.3886C25.2286 37.198 25.3384 36.9796 25.4024 36.7461L28.7501 25.3496L28.7579 25.3535L30.2501 25.3496V38.3184L24.3575 58.541C24.2483 58.9137 24.2274 59.3066 24.2964 59.6888C24.3655 60.0709 24.5226 60.4317 24.7554 60.7426C24.9882 61.0534 25.2901 61.3058 25.6374 61.4796C25.9846 61.6535 26.3676 61.744 26.7559 61.7441C27.8399 61.7441 28.8399 61.0352 29.1602 59.9453L34.9805 39.9766H37.0411L42.8614 59.9453C42.9536 60.2604 43.107 60.5543 43.3127 60.8101C43.5185 61.0659 43.7726 61.2787 44.0606 61.4363C44.3487 61.5939 44.6649 61.6933 44.9913 61.7286C45.3177 61.764 45.6479 61.7348 45.9629 61.6426C46.2782 61.5506 46.5723 61.3974 46.8283 61.1917C47.0844 60.986 47.2974 60.7319 47.4552 60.4439C47.613 60.1558 47.7125 59.8395 47.748 59.513C47.7835 59.1865 47.7543 58.8562 47.6622 58.541L41.7696 38.3281V25.3516L43.2618 25.3555L43.2696 25.3516L46.6212 36.748C46.7574 37.2117 47.0722 37.6022 47.4964 37.8337C47.7064 37.9483 47.9369 38.0204 48.1748 38.0459C48.4127 38.0715 48.6533 38.0499 48.8829 37.9824C49.1124 37.915 49.3265 37.803 49.5127 37.6528C49.699 37.5026 49.8539 37.3172 49.9685 37.1072C50.0831 36.8972 50.1552 36.6667 50.1808 36.4288C50.2063 36.1909 50.1847 35.9503 50.1172 35.7207L50.1192 35.7188ZM105.232 33.9238C103.135 33.8775 101.138 33.0117 99.6711 31.5117C98.2038 30.0117 97.3822 27.9968 97.3822 25.8984C97.3822 23.8001 98.2038 21.7852 99.6711 20.2852C101.138 18.7852 103.135 17.9193 105.232 17.873C106.287 17.8723 107.331 18.0795 108.305 18.4829C109.279 18.8862 110.163 19.4778 110.908 20.2236C111.653 20.9695 112.244 21.855 112.646 22.8295C113.048 23.8039 113.254 24.8482 113.252 25.9023C113.254 26.9561 113.048 27.9998 112.645 28.9737C112.243 29.9476 111.652 30.8325 110.907 31.5777C110.162 32.3229 109.278 32.9137 108.304 33.3163C107.33 33.7189 106.286 33.9254 105.232 33.9238ZM105.232 45.8594C105.232 45.8594 107.18 46.1113 108.371 44.4609C109.449 42.9531 109.529 37.957 109.537 37.0527H100.92C100.891 40.6484 101.309 43.2695 102.168 44.5898C103.035 45.9375 105.232 45.8613 105.232 45.8613V45.8594Z" fill="#0D2901"/>
<path d="M70.2637 52.9356C69.9688 53.4199 69.5098 54.4043 69.5098 55.0254C69.5098 56.9004 71.0235 58.4063 72.8926 58.4063H84.0196C85.2832 58.4063 86.9434 57.8965 87.6524 56.834C90.045 53.2813 92.5743 49.5371 93.3204 48.418V69.457H121.344V47.8809C121.344 42.2383 116.936 37.1582 111.721 37.1582C111.734 39.8066 111.379 44.2051 109.828 46.1309C108.209 48.0977 106.303 47.9258 106.303 47.9258V56.1348C106.903 56.3799 107.4 56.8264 107.707 57.3977C108.015 57.9691 108.113 58.6296 107.987 59.2658C107.86 59.9021 107.516 60.4744 107.014 60.8846C106.511 61.2948 105.881 61.5172 105.232 61.5137C104.865 61.5139 104.501 61.4417 104.162 61.3011C103.822 61.1605 103.514 60.9543 103.254 60.6943C102.995 60.4343 102.789 60.1256 102.649 59.7859C102.509 59.4463 102.437 59.0823 102.438 58.7148C102.438 57.5527 103.145 56.5566 104.156 56.1348V47.8887C104.156 47.8887 102.492 48.0254 100.92 46.4492C98.8204 44.2617 98.7422 38.0625 98.7461 37.0488H98.2364C96.5416 37.0469 94.8727 37.4643 93.3784 38.2638C91.8841 39.0632 90.6108 40.22 89.6719 41.6309L83.0098 51.6836L72.9024 51.6797L58.6289 37.4043C58.5018 37.2759 58.3505 37.1739 58.1837 37.1043C58.0169 37.0347 57.838 36.9989 57.6573 36.9989C57.4765 36.9989 57.2976 37.0347 57.1308 37.1043C56.9641 37.1739 56.8127 37.2759 56.6856 37.4043C56.5572 37.5318 56.4553 37.6833 56.3856 37.8503C56.316 38.0172 56.2799 38.1962 56.2795 38.3771C56.2792 38.558 56.3145 38.7372 56.3835 38.9044C56.4525 39.0716 56.5538 39.2236 56.6817 39.3516L70.2657 52.9375L70.2637 52.9356Z" fill="#0D2901"/>
</svg>
