<svg width="18" height="18" viewBox="0 0 18 18" fill="none" xmlns="http://www.w3.org/2000/svg">
<path d="M17.2602 8.82914C17.2363 8.7743 16.6513 7.47703 15.3449 6.17063C14.1327 4.95984 12.0501 3.51562 8.9999 3.51562C5.94974 3.51562 3.86708 4.95984 2.6549 6.17063C1.34849 7.47703 0.763491 8.77219 0.739585 8.82914C0.715547 8.88314 0.703125 8.94159 0.703125 9.0007C0.703125 9.05981 0.715547 9.11826 0.739585 9.17227C0.763491 9.22641 1.34849 10.5237 2.6549 11.8301C3.86708 13.0409 5.94974 14.4844 8.9999 14.4844C12.0501 14.4844 14.1327 13.0409 15.3449 11.8301C16.6513 10.5237 17.2363 9.22852 17.2602 9.17227C17.2842 9.11826 17.2967 9.05981 17.2967 9.0007C17.2967 8.94159 17.2842 8.88314 17.2602 8.82914ZM8.9999 13.6406C6.79349 13.6406 4.86693 12.8377 3.27294 11.2549C2.60477 10.5908 2.03934 9.83084 1.59529 9C2.03922 8.1693 2.60467 7.40952 3.27294 6.74578C4.86693 5.16234 6.79349 4.35938 8.9999 4.35938C11.2063 4.35938 13.1329 5.16234 14.7268 6.74578C15.3951 7.40952 15.9606 8.1693 16.4045 9C15.9566 9.85852 13.7108 13.6406 8.9999 13.6406ZM8.9999 5.76562C8.3602 5.76562 7.73487 5.95532 7.20298 6.31072C6.67108 6.66611 6.25653 7.17125 6.01172 7.76226C5.76692 8.35326 5.70287 9.00359 5.82767 9.63099C5.95247 10.2584 6.26051 10.8347 6.71285 11.287C7.16518 11.7394 7.7415 12.0474 8.3689 12.1722C8.99631 12.297 9.64663 12.233 10.2376 11.9882C10.8286 11.7434 11.3338 11.3288 11.6892 10.7969C12.0446 10.265 12.2343 9.6397 12.2343 9C12.2332 8.14253 11.892 7.32051 11.2857 6.71418C10.6794 6.10786 9.85736 5.76674 8.9999 5.76562ZM8.9999 11.3906C8.52708 11.3906 8.06487 11.2504 7.67174 10.9877C7.2786 10.725 6.97219 10.3517 6.79125 9.91485C6.61031 9.47802 6.56296 8.99735 6.65521 8.53361C6.74745 8.06988 6.97514 7.64391 7.30947 7.30957C7.64381 6.97524 8.06977 6.74755 8.53351 6.65531C8.99725 6.56307 9.47792 6.61041 9.91475 6.79135C10.3516 6.97229 10.7249 7.2787 10.9876 7.67184C11.2503 8.06498 11.3905 8.52718 11.3905 9C11.3905 9.63403 11.1387 10.2421 10.6903 10.6904C10.242 11.1388 9.63393 11.3906 8.9999 11.3906Z" fill="#555555"/>
</svg>
