<svg width="41" height="41" viewBox="0 0 41 41" fill="none" xmlns="http://www.w3.org/2000/svg">
<path d="M2.28063 0H38.745C40.0006 0 41 0.999375 41 2.255V38.745C41 39.975 40.0006 41 38.745 41H28.29V25.1125H33.62L34.4144 18.9369H28.29V14.9906C28.29 13.1969 28.8025 11.9669 31.365 11.9669H34.645V6.43188C34.0813 6.355 32.1338 6.20125 29.8787 6.20125C25.1381 6.20125 21.9094 9.07125 21.9094 14.3756V18.9369H16.5538V25.1125H21.9094V41H2.28063C1.68018 41 1.10394 40.7633 0.676972 40.3411C0.250001 39.9189 0.00674658 39.3454 0 38.745V2.255C0 0.999375 1.025 0 2.28063 0Z" fill="white"/>
</svg>
