<svg width="45" height="45" viewBox="0 0 45 45" fill="none" xmlns="http://www.w3.org/2000/svg">
<rect x="1.5" y="1.5" width="42" height="42" rx="4.5" fill="white" stroke="#0D2901" stroke-width="3"/>
<path d="M40.745 42.5H30.79V27.6125H35.62H36.0598L36.1159 27.1763L36.9103 21.0007L36.9828 20.4369H36.4144H30.79V16.9906C30.79 16.1174 30.9207 15.5175 31.2488 15.1284C31.5609 14.7584 32.152 14.4669 33.365 14.4669H36.645H37.145V13.9669V8.43188V7.99543L36.7126 7.93646C36.12 7.85565 34.1487 7.70125 31.8787 7.70125C29.408 7.70125 27.2785 8.4508 25.7652 9.94331C24.2503 11.4375 23.4094 13.6205 23.4094 16.3756V20.4369H18.5538H18.0538V20.9369V27.1125V27.6125H18.5538H23.4094V42.5H4.28063C3.81179 42.5 3.36188 42.3152 3.02852 41.9856C2.69578 41.6566 2.50595 41.2098 2.5 40.742V4.255C2.5 3.28285 3.29375 2.5 4.28063 2.5H40.745C41.7245 2.5 42.5 3.27552 42.5 4.255V40.745C42.5 41.7026 41.7208 42.5 40.745 42.5Z" fill="#0D2901" stroke="#0D2901"/>
</svg>
