<svg width="34" height="33" viewBox="0 0 34 33" fill="none" xmlns="http://www.w3.org/2000/svg">
<path d="M30.4826 13.8071H29.375V13.75H17V19.25H24.7708C23.6371 22.4517 20.5908 24.75 17 24.75C12.4439 24.75 8.75 21.0561 8.75 16.5C8.75 11.9439 12.4439 8.25 17 8.25C19.1031 8.25 21.0164 9.04337 22.4732 10.3393L26.3624 6.45012C23.9066 4.16144 20.6217 2.75 17 2.75C9.40656 2.75 3.25 8.90656 3.25 16.5C3.25 24.0934 9.40656 30.25 17 30.25C24.5934 30.25 30.75 24.0934 30.75 16.5C30.75 15.5781 30.6551 14.6781 30.4826 13.8071Z" fill="#FFC107"/>
<path d="M4.83545 10.1001L9.35301 13.4131C10.5754 10.3867 13.5358 8.25 17.0001 8.25C19.1031 8.25 21.0165 9.04337 22.4733 10.3393L26.3625 6.45012C23.9067 4.16144 20.6218 2.75 17.0001 2.75C11.7187 2.75 7.13857 5.73169 4.83545 10.1001Z" fill="#FF3D00"/>
<path d="M17 30.25C20.5516 30.25 23.7787 28.8908 26.2187 26.6805L21.963 23.0794C20.5364 24.165 18.7927 24.7519 17 24.75C13.4236 24.75 10.3869 22.4695 9.24291 19.2871L4.75903 22.7418C7.03466 27.1947 11.656 30.25 17 30.25Z" fill="#4CAF50"/>
<path d="M30.4826 13.8071H29.375V13.75H17V19.25H24.7708C24.2285 20.7738 23.2517 22.1053 21.961 23.0801L21.9631 23.0787L26.2187 26.6798C25.9176 26.9534 30.75 23.375 30.75 16.5C30.75 15.5781 30.6551 14.6781 30.4826 13.8071Z" fill="#1976D2"/>
</svg>
