<svg width="45" height="45" viewBox="0 0 45 45" fill="none" xmlns="http://www.w3.org/2000/svg">
<path d="M24.813 0C27.3441 0.00674984 28.6288 0.0202495 29.738 0.0517487L30.1745 0.0674983C30.6785 0.0854979 31.1757 0.107997 31.7764 0.134997C34.1703 0.247494 35.8037 0.625485 37.2369 1.18122C38.7218 1.75271 39.9728 2.52669 41.2237 3.77541C42.3682 4.89978 43.2535 6.26041 43.8178 7.76231C44.3735 9.19553 44.7515 10.829 44.864 13.2252C44.891 13.8237 44.9135 14.3209 44.9315 14.8271L44.945 15.2636C44.9788 16.3706 44.9923 17.6553 44.9968 20.1865L44.999 21.865V24.8124C45.0045 26.4535 44.9872 28.0946 44.9473 29.7353L44.9338 30.1718C44.9158 30.678 44.8933 31.1752 44.8663 31.7737C44.7538 34.1699 44.3713 35.8011 43.8178 37.2366C43.2535 38.7385 42.3682 40.0991 41.2237 41.2235C40.0994 42.368 38.7388 43.2534 37.2369 43.8177C35.8037 44.3734 34.1703 44.7514 31.7764 44.8639L30.1745 44.9314L29.738 44.9449C28.6288 44.9764 27.3441 44.9922 24.813 44.9967L23.1346 44.9989H20.1895C18.5477 45.0047 16.9059 44.9874 15.2645 44.9472L14.828 44.9337C14.2939 44.9134 13.7599 44.8902 13.2261 44.8639C10.8322 44.7514 9.19882 44.3734 7.76339 43.8177C6.26233 43.2531 4.90253 42.3678 3.77884 41.2235C2.63352 40.0994 1.74744 38.7387 1.18247 37.2366C0.626748 35.8034 0.248767 34.1699 0.136273 31.7737L0.0687763 30.1718L0.0575271 29.7353C0.0160528 28.0947 -0.00269828 26.4535 0.00127973 24.8124V20.1865C-0.00494772 18.5454 0.0115532 16.9043 0.0507774 15.2636L0.0665265 14.8271C0.0845256 14.3209 0.107024 13.8237 0.134023 13.2252C0.246517 10.829 0.624498 9.19778 1.18022 7.76231C1.7465 6.25979 2.63415 4.89911 3.78109 3.77541C4.90413 2.63142 6.26314 1.74612 7.76339 1.18122C9.19882 0.625485 10.83 0.247494 13.2261 0.134997C13.8246 0.107997 14.3241 0.0854979 14.828 0.0674983L15.2645 0.0539985C16.9051 0.0140232 18.5462 -0.00322799 20.1873 0.00224978L24.813 0ZM22.5001 11.2497C19.5166 11.2497 16.6553 12.435 14.5456 14.5447C12.4359 16.6544 11.2507 19.5158 11.2507 22.4995C11.2507 25.4831 12.4359 28.3445 14.5456 30.4542C16.6553 32.5639 19.5166 33.7492 22.5001 33.7492C25.4837 33.7492 28.345 32.5639 30.4547 30.4542C32.5644 28.3445 33.7496 25.4831 33.7496 22.4995C33.7496 19.5158 32.5644 16.6544 30.4547 14.5447C28.345 12.435 25.4837 11.2497 22.5001 11.2497ZM22.5001 15.7496C23.3865 15.7495 24.2642 15.9239 25.0832 16.263C25.9022 16.6021 26.6463 17.0991 27.2732 17.7258C27.9001 18.3525 28.3974 19.0965 28.7367 19.9154C29.076 20.7342 29.2508 21.6119 29.2509 22.4983C29.2511 23.3847 29.0766 24.2625 28.7376 25.0815C28.3985 25.9004 27.9015 26.6446 27.2748 27.2715C26.6481 27.8984 25.9041 28.3957 25.0853 28.7351C24.2664 29.0744 23.3888 29.2491 22.5024 29.2493C20.7123 29.2493 18.9955 28.5381 17.7297 27.2723C16.4639 26.0065 15.7527 24.2896 15.7527 22.4995C15.7527 20.7093 16.4639 18.9924 17.7297 17.7266C18.9955 16.4608 20.7123 15.7496 22.5024 15.7496M34.3143 7.87481C33.5684 7.87481 32.8531 8.17112 32.3257 8.69855C31.7982 9.22598 31.5019 9.94134 31.5019 10.6872C31.5019 11.4331 31.7982 12.1485 32.3257 12.6759C32.8531 13.2034 33.5684 13.4997 34.3143 13.4997C35.0602 13.4997 35.7755 13.2034 36.3029 12.6759C36.8304 12.1485 37.1267 11.4331 37.1267 10.6872C37.1267 9.94134 36.8304 9.22598 36.3029 8.69855C35.7755 8.17112 35.0602 7.87481 34.3143 7.87481Z" fill="white"/>
</svg>
