<svg width="45" height="45" viewBox="0 0 45 45" fill="none" xmlns="http://www.w3.org/2000/svg">
<rect x="1.5" y="1.5" width="42" height="42" rx="4.5" fill="white" stroke="#0D2901" stroke-width="3"/>
<mask id="path-2-inside-1_1_514" fill="white">
<path d="M24.813 0C27.3441 0.00674984 28.6288 0.0202495 29.738 0.0517487L30.1745 0.0674983C30.6785 0.0854979 31.1757 0.107997 31.7764 0.134997C34.1703 0.247494 35.8037 0.625485 37.2369 1.18122C38.7218 1.75271 39.9728 2.52669 41.2237 3.77541C42.3682 4.89978 43.2535 6.26041 43.8178 7.76231C44.3735 9.19553 44.7515 10.829 44.864 13.2252C44.891 13.8237 44.9135 14.3209 44.9315 14.8271L44.945 15.2636C44.9788 16.3706 44.9923 17.6553 44.9968 20.1865L44.999 21.865V24.8124C45.0045 26.4535 44.9872 28.0946 44.9473 29.7353L44.9338 30.1718C44.9158 30.678 44.8933 31.1752 44.8663 31.7737C44.7538 34.1699 44.3713 35.8011 43.8178 37.2366C43.2535 38.7385 42.3682 40.0991 41.2237 41.2235C40.0994 42.368 38.7388 43.2534 37.2369 43.8177C35.8037 44.3734 34.1703 44.7514 31.7764 44.8639L30.1745 44.9314L29.738 44.9449C28.6288 44.9764 27.3441 44.9922 24.813 44.9967L23.1346 44.9989H20.1895C18.5477 45.0047 16.9059 44.9874 15.2645 44.9472L14.828 44.9337C14.2939 44.9134 13.7599 44.8902 13.2261 44.8639C10.8322 44.7514 9.19882 44.3734 7.76339 43.8177C6.26233 43.2531 4.90253 42.3678 3.77884 41.2235C2.63352 40.0994 1.74744 38.7387 1.18247 37.2366C0.626748 35.8034 0.248767 34.1699 0.136273 31.7737L0.0687763 30.1718L0.0575271 29.7353C0.0160528 28.0947 -0.00269828 26.4535 0.00127973 24.8124V20.1865C-0.00494772 18.5454 0.0115532 16.9043 0.0507774 15.2636L0.0665265 14.8271C0.0845256 14.3209 0.107024 13.8237 0.134023 13.2252C0.246517 10.829 0.624498 9.19778 1.18022 7.76231C1.7465 6.25979 2.63415 4.89911 3.78109 3.77541C4.90413 2.63142 6.26314 1.74612 7.76339 1.18122C9.19882 0.625485 10.83 0.247494 13.2261 0.134997C13.8246 0.107997 14.3241 0.0854979 14.828 0.0674983L15.2645 0.0539985C16.9051 0.0140232 18.5462 -0.00322799 20.1873 0.00224978L24.813 0ZM22.5001 11.2497C19.5166 11.2497 16.6553 12.435 14.5456 14.5447C12.4359 16.6544 11.2507 19.5158 11.2507 22.4995C11.2507 25.4831 12.4359 28.3445 14.5456 30.4542C16.6553 32.5639 19.5166 33.7492 22.5001 33.7492C25.4837 33.7492 28.345 32.5639 30.4547 30.4542C32.5644 28.3445 33.7496 25.4831 33.7496 22.4995C33.7496 19.5158 32.5644 16.6544 30.4547 14.5447C28.345 12.435 25.4837 11.2497 22.5001 11.2497ZM22.5001 15.7496C23.3865 15.7495 24.2642 15.9239 25.0832 16.263C25.9022 16.6021 26.6463 17.0991 27.2732 17.7258C27.9001 18.3525 28.3974 19.0965 28.7367 19.9154C29.076 20.7342 29.2508 21.6119 29.2509 22.4983C29.2511 23.3847 29.0766 24.2625 28.7376 25.0815C28.3985 25.9004 27.9015 26.6446 27.2748 27.2715C26.6481 27.8984 25.9041 28.3957 25.0853 28.7351C24.2664 29.0744 23.3888 29.2491 22.5024 29.2493C20.7123 29.2493 18.9955 28.5381 17.7297 27.2723C16.4639 26.0065 15.7527 24.2896 15.7527 22.4995C15.7527 20.7093 16.4639 18.9924 17.7297 17.7266C18.9955 16.4608 20.7123 15.7496 22.5024 15.7496M34.3143 7.87481C33.5684 7.87481 32.8531 8.17112 32.3257 8.69855C31.7982 9.22598 31.5019 9.94134 31.5019 10.6872C31.5019 11.4331 31.7982 12.1485 32.3257 12.6759C32.8531 13.2034 33.5684 13.4997 34.3143 13.4997C35.0602 13.4997 35.7755 13.2034 36.3029 12.6759C36.8304 12.1485 37.1267 11.4331 37.1267 10.6872C37.1267 9.94134 36.8304 9.22598 36.3029 8.69855C35.7755 8.17112 35.0602 7.87481 34.3143 7.87481Z"/>
</mask>
<path d="M24.813 0C27.3441 0.00674984 28.6288 0.0202495 29.738 0.0517487L30.1745 0.0674983C30.6785 0.0854979 31.1757 0.107997 31.7764 0.134997C34.1703 0.247494 35.8037 0.625485 37.2369 1.18122C38.7218 1.75271 39.9728 2.52669 41.2237 3.77541C42.3682 4.89978 43.2535 6.26041 43.8178 7.76231C44.3735 9.19553 44.7515 10.829 44.864 13.2252C44.891 13.8237 44.9135 14.3209 44.9315 14.8271L44.945 15.2636C44.9788 16.3706 44.9923 17.6553 44.9968 20.1865L44.999 21.865V24.8124C45.0045 26.4535 44.9872 28.0946 44.9473 29.7353L44.9338 30.1718C44.9158 30.678 44.8933 31.1752 44.8663 31.7737C44.7538 34.1699 44.3713 35.8011 43.8178 37.2366C43.2535 38.7385 42.3682 40.0991 41.2237 41.2235C40.0994 42.368 38.7388 43.2534 37.2369 43.8177C35.8037 44.3734 34.1703 44.7514 31.7764 44.8639L30.1745 44.9314L29.738 44.9449C28.6288 44.9764 27.3441 44.9922 24.813 44.9967L23.1346 44.9989H20.1895C18.5477 45.0047 16.9059 44.9874 15.2645 44.9472L14.828 44.9337C14.2939 44.9134 13.7599 44.8902 13.2261 44.8639C10.8322 44.7514 9.19882 44.3734 7.76339 43.8177C6.26233 43.2531 4.90253 42.3678 3.77884 41.2235C2.63352 40.0994 1.74744 38.7387 1.18247 37.2366C0.626748 35.8034 0.248767 34.1699 0.136273 31.7737L0.0687763 30.1718L0.0575271 29.7353C0.0160528 28.0947 -0.00269828 26.4535 0.00127973 24.8124V20.1865C-0.00494772 18.5454 0.0115532 16.9043 0.0507774 15.2636L0.0665265 14.8271C0.0845256 14.3209 0.107024 13.8237 0.134023 13.2252C0.246517 10.829 0.624498 9.19778 1.18022 7.76231C1.7465 6.25979 2.63415 4.89911 3.78109 3.77541C4.90413 2.63142 6.26314 1.74612 7.76339 1.18122C9.19882 0.625485 10.83 0.247494 13.2261 0.134997C13.8246 0.107997 14.3241 0.0854979 14.828 0.0674983L15.2645 0.0539985C16.9051 0.0140232 18.5462 -0.00322799 20.1873 0.00224978L24.813 0ZM22.5001 11.2497C19.5166 11.2497 16.6553 12.435 14.5456 14.5447C12.4359 16.6544 11.2507 19.5158 11.2507 22.4995C11.2507 25.4831 12.4359 28.3445 14.5456 30.4542C16.6553 32.5639 19.5166 33.7492 22.5001 33.7492C25.4837 33.7492 28.345 32.5639 30.4547 30.4542C32.5644 28.3445 33.7496 25.4831 33.7496 22.4995C33.7496 19.5158 32.5644 16.6544 30.4547 14.5447C28.345 12.435 25.4837 11.2497 22.5001 11.2497ZM22.5001 15.7496C23.3865 15.7495 24.2642 15.9239 25.0832 16.263C25.9022 16.6021 26.6463 17.0991 27.2732 17.7258C27.9001 18.3525 28.3974 19.0965 28.7367 19.9154C29.076 20.7342 29.2508 21.6119 29.2509 22.4983C29.2511 23.3847 29.0766 24.2625 28.7376 25.0815C28.3985 25.9004 27.9015 26.6446 27.2748 27.2715C26.6481 27.8984 25.9041 28.3957 25.0853 28.7351C24.2664 29.0744 23.3888 29.2491 22.5024 29.2493C20.7123 29.2493 18.9955 28.5381 17.7297 27.2723C16.4639 26.0065 15.7527 24.2896 15.7527 22.4995C15.7527 20.7093 16.4639 18.9924 17.7297 17.7266C18.9955 16.4608 20.7123 15.7496 22.5024 15.7496M34.3143 7.87481C33.5684 7.87481 32.8531 8.17112 32.3257 8.69855C31.7982 9.22598 31.5019 9.94134 31.5019 10.6872C31.5019 11.4331 31.7982 12.1485 32.3257 12.6759C32.8531 13.2034 33.5684 13.4997 34.3143 13.4997C35.0602 13.4997 35.7755 13.2034 36.3029 12.6759C36.8304 12.1485 37.1267 11.4331 37.1267 10.6872C37.1267 9.94134 36.8304 9.22598 36.3029 8.69855C35.7755 8.17112 35.0602 7.87481 34.3143 7.87481Z" fill="#0D2901"/>
<path d="M24.813 0L24.8157 -1L24.8125 -1L24.813 0ZM29.738 0.0517487L29.7741 -0.94763L29.7664 -0.947848L29.738 0.0517487ZM30.1745 0.0674983L30.1384 1.06685L30.1388 1.06686L30.1745 0.0674983ZM31.7764 0.134997L31.8234 -0.863903L31.8213 -0.863995L31.7764 0.134997ZM37.2369 1.18122L36.8754 2.11358L36.8777 2.11449L37.2369 1.18122ZM41.2237 3.77541L40.5172 4.48316L40.5229 4.48876L41.2237 3.77541ZM43.8178 7.76231L42.8817 8.11405L42.8855 8.12383L43.8178 7.76231ZM44.864 13.2252L45.863 13.1801L45.8629 13.1783L44.864 13.2252ZM44.9315 14.8271L45.931 14.7962L45.9309 14.7916L44.9315 14.8271ZM44.945 15.2636L45.9445 15.2332L45.9445 15.2327L44.945 15.2636ZM44.9968 20.1865L45.9968 20.1852L45.9968 20.1847L44.9968 20.1865ZM44.999 21.865H45.999V21.8636L44.999 21.865ZM44.999 24.8124H43.999L43.999 24.8157L44.999 24.8124ZM44.9473 29.7353L45.9468 29.7662L45.947 29.7596L44.9473 29.7353ZM44.9338 30.1718L45.9331 30.2073L45.9333 30.2027L44.9338 30.1718ZM44.8663 31.7737L45.8652 31.8206L45.8652 31.8188L44.8663 31.7737ZM43.8178 37.2366L42.8847 36.8768L42.8817 36.8849L43.8178 37.2366ZM41.2237 41.2235L40.5229 40.5101L40.5166 40.5164L40.5103 40.5227L41.2237 41.2235ZM37.2369 43.8177L36.8851 42.8815L36.8754 42.8853L37.2369 43.8177ZM31.7764 44.8639L31.8185 45.863L31.8234 45.8628L31.7764 44.8639ZM30.1745 44.9314L30.2054 45.931L30.2166 45.9305L30.1745 44.9314ZM29.738 44.9449L29.7664 45.9445L29.7689 45.9444L29.738 44.9449ZM24.813 44.9967L24.8144 45.9967H24.8148L24.813 44.9967ZM23.1346 44.9989V45.9989H23.136L23.1346 44.9989ZM20.1895 44.9989V43.9989L20.186 43.9989L20.1895 44.9989ZM15.2645 44.9472L15.2336 45.9467L15.24 45.9469L15.2645 44.9472ZM14.828 44.9337L14.7902 45.933L14.7971 45.9332L14.828 44.9337ZM13.2261 44.8639L13.2753 43.8651L13.2731 43.865L13.2261 44.8639ZM7.76339 43.8177L8.12445 42.8851L8.11545 42.8817L7.76339 43.8177ZM3.77884 41.2235L4.49233 40.5228L4.48588 40.5163L4.47932 40.5098L3.77884 41.2235ZM1.18247 37.2366L2.1185 36.8845L2.11483 36.8751L1.18247 37.2366ZM0.136273 31.7737L-0.862852 31.8158L-0.862627 31.8206L0.136273 31.7737ZM0.0687763 30.1718L-0.930892 30.1975L-0.930681 30.2057L-0.930337 30.2139L0.0687763 30.1718ZM0.0575271 29.7353L-0.942154 29.7605L-0.942141 29.761L0.0575271 29.7353ZM0.00127973 24.8124L1.00128 24.8148V24.8124H0.00127973ZM0.00127973 20.1865H1.00129L1.00127 20.1827L0.00127973 20.1865ZM0.0507774 15.2636L-0.948646 15.2276L-0.948937 15.2397L0.0507774 15.2636ZM0.0665265 14.8271L1.06588 14.8632L1.0659 14.8627L0.0665265 14.8271ZM0.134023 13.2252L-0.864878 13.1783L-0.864961 13.1801L0.134023 13.2252ZM1.18022 7.76231L2.11281 8.12335L2.11597 8.11498L1.18022 7.76231ZM3.78109 3.77541L4.48092 4.48971L4.48788 4.4829L4.4947 4.47595L3.78109 3.77541ZM7.76339 1.18122L8.11579 2.11712L8.12443 2.11377L7.76339 1.18122ZM13.2261 0.134997L13.181 -0.863989L13.1792 -0.863903L13.2261 0.134997ZM14.828 0.0674983L14.7971 -0.932035L14.7923 -0.931865L14.828 0.0674983ZM15.2645 0.0539985L15.2402 -0.945726L15.2336 -0.945524L15.2645 0.0539985ZM20.1873 0.00224978L20.1839 1.00225L20.1877 1.00225L20.1873 0.00224978ZM22.5001 11.2497V10.2497V11.2497ZM11.2507 22.4995H10.2507H11.2507ZM22.5001 33.7492V32.7492V33.7492ZM33.7496 22.4995H32.7496H33.7496ZM22.5024 29.2493V30.2493H22.5026L22.5024 29.2493ZM24.8104 0.999996C27.3409 1.00674 28.6144 1.02024 29.7096 1.05135L29.7664 -0.947848C28.6433 -0.979744 27.3474 -0.993245 24.8157 -0.999996L24.8104 0.999996ZM29.702 1.0511L30.1384 1.06685L30.2106 -0.931851L29.7741 -0.947601L29.702 1.0511ZM30.1388 1.06686C30.6373 1.08466 31.1296 1.10693 31.7315 1.13399L31.8213 -0.863995C31.2219 -0.890938 30.7197 -0.913668 30.2102 -0.931865L30.1388 1.06686ZM31.7295 1.13389C34.0299 1.242 35.5553 1.60172 36.8754 2.11358L37.5984 0.248863C36.0521 -0.350751 34.3107 -0.747013 31.8234 -0.863901L31.7295 1.13389ZM36.8777 2.11449C38.2382 2.63807 39.3693 3.33727 40.5172 4.48314L41.9302 3.06767C40.5762 1.71611 39.2055 0.86735 37.5961 0.247952L36.8777 2.11449ZM40.5229 4.48876C41.5636 5.51114 42.3686 6.74836 42.8817 8.11403L44.7539 7.41059C44.1384 5.77246 43.1728 4.28841 41.9245 3.06206L40.5229 4.48876ZM42.8855 8.12383C43.3973 9.44383 43.757 10.9693 43.8651 13.2721L45.8629 13.1783C45.746 10.6887 45.3498 8.94722 44.7502 7.40079L42.8855 8.12383ZM43.865 13.2702C43.8921 13.8698 43.9143 14.3621 43.9321 14.8627L45.9309 14.7916C45.9127 14.2797 45.8899 13.7775 45.863 13.1801L43.865 13.2702ZM43.932 14.8581L43.9455 15.2945L45.9445 15.2327L45.931 14.7962L43.932 14.8581ZM43.9455 15.2941C43.9787 16.3855 43.9923 17.6577 43.9968 20.1883L45.9968 20.1847C45.9923 17.6529 45.9788 16.3557 45.9445 15.2332L43.9455 15.2941ZM43.9968 20.1879L43.999 21.8663L45.999 21.8636L45.9968 20.1852L43.9968 20.1879ZM43.999 21.865V24.8124H45.999V21.865H43.999ZM43.999 24.8157C44.0045 26.4476 43.9873 28.0795 43.9476 29.7109L45.947 29.7596C45.9872 28.1098 46.0045 26.4594 45.999 24.8091L43.999 24.8157ZM43.9477 29.7044L43.9342 30.1409L45.9333 30.2027L45.9468 29.7662L43.9477 29.7044ZM43.9344 30.1362C43.9166 30.6368 43.8943 31.1291 43.8673 31.7287L45.8652 31.8188C45.8922 31.2214 45.9149 30.7192 45.9331 30.2073L43.9344 30.1362ZM43.8674 31.7268C43.7594 34.0275 43.3957 35.5518 42.8848 36.8768L44.7509 37.5963C45.3469 36.0505 45.7482 34.3123 45.8652 31.8206L43.8674 31.7268ZM42.8817 36.8849C42.3686 38.2505 41.5636 39.4878 40.5229 40.5101L41.9245 41.9369C43.1728 40.7105 44.1384 39.2264 44.7539 37.5883L42.8817 36.8849ZM40.5103 40.5227C39.488 41.5634 38.2508 42.3685 36.8852 42.8816L37.5886 44.7538C39.2267 44.1383 40.7107 43.1726 41.9371 41.9243L40.5103 40.5227ZM36.8754 42.8853C35.5553 43.3972 34.0299 43.7569 31.7295 43.865L31.8234 45.8628C34.3107 45.7459 36.0521 45.3497 37.5984 44.75L36.8754 42.8853ZM31.7343 43.8648L30.1324 43.9323L30.2166 45.9305L31.8185 45.863L31.7343 43.8648ZM30.1436 43.9319L29.7071 43.9454L29.7689 45.9444L30.2054 45.9309L30.1436 43.9319ZM29.7096 43.9453C28.614 43.9764 27.34 43.9922 24.8112 43.9967L24.8148 45.9967C27.3483 45.9922 28.6436 45.9764 29.7664 45.9445L29.7096 43.9453ZM24.8117 43.9967L23.1333 43.9989L23.136 45.9989L24.8144 45.9967L24.8117 43.9967ZM23.1346 43.9989H20.1895V45.9989H23.1346V43.9989ZM20.186 43.9989C18.5535 44.0047 16.921 43.9875 15.289 43.9475L15.24 45.9469C16.8907 45.9874 18.5419 46.0047 20.193 45.9989L20.186 43.9989ZM15.2954 43.9476L14.8589 43.9341L14.7971 45.9332L15.2336 45.9467L15.2954 43.9476ZM14.8659 43.9344C14.3355 43.9143 13.8053 43.8912 13.2753 43.8651L13.177 45.8627C13.7146 45.8892 14.2523 45.9126 14.7902 45.9329L14.8659 43.9344ZM13.2731 43.865C10.9727 43.7569 9.44709 43.3972 8.12443 42.8851L7.40234 44.7502C8.95055 45.3496 10.6918 45.7459 13.1792 45.8628L13.2731 43.865ZM8.11545 42.8817C6.75055 42.3683 5.51409 41.5633 4.49233 40.5228L3.06535 41.9242C4.29096 43.1722 5.77411 44.1378 7.41133 44.7537L8.11545 42.8817ZM4.47932 40.5098C3.43789 39.4876 2.63218 38.2504 2.11846 36.8846L0.246485 37.5886C0.862695 39.227 1.82915 40.7111 3.07836 41.9372L4.47932 40.5098ZM2.11483 36.8751C1.60301 35.5551 1.24328 34.0296 1.13517 31.7268L-0.862627 31.8206C-0.745749 34.3102 -0.349514 36.0517 0.250106 37.5981L2.11483 36.8751ZM1.13539 31.7316L1.06789 30.1297L-0.930337 30.2139L-0.862841 31.8158L1.13539 31.7316ZM1.06844 30.146L1.0572 29.7095L-0.942141 29.761L-0.930892 30.1975L1.06844 30.146ZM1.05721 29.71C1.01597 28.0786 0.997321 26.4467 1.00128 24.8148L-0.998717 24.81C-1.00272 26.4603 -0.983861 28.1107 -0.942154 29.7605L1.05721 29.71ZM1.00128 24.8124V20.1865H-0.99872V24.8124H1.00128ZM1.00127 20.1827C0.99508 18.5508 1.01149 16.919 1.05049 15.2875L-0.948937 15.2397C-0.988382 16.8896 -1.00498 18.54 -0.998713 20.1903L1.00127 20.1827ZM1.05013 15.2997L1.06588 14.8632L-0.932823 14.7911L-0.948572 15.2276L1.05013 15.2997ZM1.0659 14.8627C1.08369 14.3621 1.10596 13.8698 1.13301 13.2702L-0.864961 13.1801C-0.89191 13.7775 -0.914642 14.2797 -0.932842 14.7916L1.0659 14.8627ZM1.13292 13.2721C1.24102 10.9695 1.60068 9.44612 2.11278 8.12334L0.247665 7.40128C-0.351682 8.94944 -0.747985 10.6884 -0.864877 13.1783L1.13292 13.2721ZM2.11597 8.11498C2.63089 6.74875 3.43802 5.51149 4.48092 4.48971L3.08125 3.0611C1.83028 4.28673 0.862122 5.77084 0.244474 7.40964L2.11597 8.11498ZM4.4947 4.47595C5.51587 3.43573 6.75161 2.63074 8.11577 2.11708L7.411 0.245366C5.77466 0.86151 4.29238 1.82711 3.06748 3.07487L4.4947 4.47595ZM8.12443 2.11377C9.44717 1.60166 10.9706 1.242 13.273 1.1339L13.1792 -0.863903C10.6894 -0.747008 8.95046 -0.350693 7.40234 0.248673L8.12443 2.11377ZM13.2712 1.13398C13.8706 1.10694 14.3653 1.08466 14.8637 1.06686L14.7923 -0.931865C14.2829 -0.913668 13.7786 -0.890946 13.181 -0.863987L13.2712 1.13398ZM14.8589 1.06702L15.2954 1.05352L15.2336 -0.945524L14.7971 -0.932024L14.8589 1.06702ZM15.2889 1.0537C16.9202 1.01395 18.5521 0.996797 20.1839 1.00224L20.1906 -0.997745C18.5403 -1.00325 16.89 -0.985905 15.2402 -0.945705L15.2889 1.0537ZM20.1877 1.00225L24.8135 1L24.8125 -1L20.1868 -0.99775L20.1877 1.00225ZM22.5001 10.2497C19.2514 10.2497 16.1357 11.5403 13.8385 13.8376L15.2527 15.2518C17.1749 13.3296 19.7818 12.2497 22.5001 12.2497V10.2497ZM13.8385 13.8376C11.5413 16.1349 10.2507 19.2506 10.2507 22.4995H12.2507C12.2507 19.781 13.3306 17.174 15.2527 15.2518L13.8385 13.8376ZM10.2507 22.4995C10.2507 25.7483 11.5413 28.864 13.8385 31.1613L15.2527 29.7471C13.3306 27.8249 12.2507 25.2179 12.2507 22.4995H10.2507ZM13.8385 31.1613C16.1357 33.4586 19.2514 34.7492 22.5001 34.7492V32.7492C19.7818 32.7492 17.1749 31.6693 15.2527 29.7471L13.8385 31.1613ZM22.5001 34.7492C25.7489 34.7492 28.8646 33.4586 31.1618 31.1613L29.7476 29.7471C27.8254 31.6693 25.2185 32.7492 22.5001 32.7492V34.7492ZM31.1618 31.1613C33.459 28.864 34.7496 25.7483 34.7496 22.4995H32.7496C32.7496 25.2179 31.6697 27.8249 29.7476 29.7471L31.1618 31.1613ZM34.7496 22.4995C34.7496 19.2506 33.459 16.1349 31.1618 13.8376L29.7476 15.2518C31.6697 17.174 32.7496 19.781 32.7496 22.4995H34.7496ZM31.1618 13.8376C28.8646 11.5403 25.7489 10.2497 22.5001 10.2497V12.2497C25.2185 12.2497 27.8254 13.3296 29.7476 15.2518L31.1618 13.8376ZM22.5003 16.7496C23.2554 16.7495 24.003 16.8981 24.7007 17.1869L25.4657 15.339C24.5255 14.9497 23.5177 14.7494 22.5 14.7496L22.5003 16.7496ZM24.7007 17.1869C25.3983 17.4758 26.0322 17.8992 26.5662 18.433L27.9802 17.0186C27.2605 16.2991 26.406 15.7284 25.4657 15.339L24.7007 17.1869ZM26.5662 18.433C27.1002 18.9669 27.5238 19.6006 27.8129 20.2982L29.6605 19.5325C29.2709 18.5924 28.6999 17.7381 27.9802 17.0186L26.5662 18.433ZM27.8129 20.2982C28.102 20.9958 28.2508 21.7434 28.2509 22.4985L30.2509 22.4982C30.2508 21.4804 30.0501 20.4727 29.6605 19.5325L27.8129 20.2982ZM28.2509 22.4985C28.2511 23.2536 28.1025 24.0013 27.8136 24.6989L29.6615 25.464C30.0508 24.5237 30.2511 23.5159 30.2509 22.4982L28.2509 22.4985ZM27.8136 24.6989C27.5248 25.3966 27.1014 26.0305 26.5676 26.5645L27.982 27.9785C28.7015 27.2587 29.2722 26.4043 29.6615 25.464L27.8136 24.6989ZM26.5676 26.5645C26.0337 27.0985 25.4 27.5222 24.7024 27.8112L25.4681 29.6589C26.4083 29.2692 27.2625 28.6983 27.982 27.9785L26.5676 26.5645ZM24.7024 27.8112C24.0049 28.1003 23.2573 28.2492 22.5022 28.2493L22.5026 30.2493C23.5203 30.2491 24.528 30.0485 25.4681 29.6589L24.7024 27.8112ZM22.5024 28.2493C20.9775 28.2493 19.5151 27.6435 18.4368 26.5652L17.0225 27.9794C18.4759 29.4328 20.447 30.2493 22.5024 30.2493V28.2493ZM18.4368 26.5652C17.3585 25.4869 16.7527 24.0244 16.7527 22.4995H14.7527C14.7527 24.5548 15.5692 26.526 17.0225 27.9794L18.4368 26.5652ZM16.7527 22.4995C16.7527 20.9745 17.3585 19.512 18.4368 18.4337L17.0225 17.0195C15.5692 18.4729 14.7527 20.4441 14.7527 22.4995H16.7527ZM18.4368 18.4337C19.5151 17.3554 20.9775 16.7496 22.5024 16.7496V14.7496C20.447 14.7496 18.4759 15.5661 17.0225 17.0195L18.4368 18.4337ZM34.3143 6.87481C33.3032 6.87481 32.3335 7.27648 31.6185 7.99145L33.0328 9.40565C33.3727 9.06575 33.8336 8.87481 34.3143 8.87481V6.87481ZM31.6185 7.99145C30.9036 8.70642 30.5019 9.67613 30.5019 10.6872H32.5019C32.5019 10.2065 32.6929 9.74554 33.0328 9.40565L31.6185 7.99145ZM30.5019 10.6872C30.5019 11.6984 30.9036 12.6681 31.6185 13.383L33.0328 11.9688C32.6929 11.6289 32.5019 11.1679 32.5019 10.6872H30.5019ZM31.6185 13.383C32.3335 14.098 33.3032 14.4997 34.3143 14.4997V12.4997C33.8336 12.4997 33.3727 12.3087 33.0328 11.9688L31.6185 13.383ZM34.3143 14.4997C35.3254 14.4997 36.2951 14.098 37.0101 13.383L35.5958 11.9688C35.2559 12.3087 34.795 12.4997 34.3143 12.4997V14.4997ZM37.0101 13.383C37.725 12.6681 38.1267 11.6983 38.1267 10.6872H36.1267C36.1267 11.1679 35.9357 11.6289 35.5958 11.9688L37.0101 13.383ZM38.1267 10.6872C38.1267 9.67613 37.725 8.70643 37.0101 7.99145L35.5958 9.40565C35.9357 9.74554 36.1267 10.2065 36.1267 10.6872H38.1267ZM37.0101 7.99145C36.2951 7.27648 35.3254 6.87481 34.3143 6.87481V8.87481C34.795 8.87481 35.2559 9.06575 35.5958 9.40565L37.0101 7.99145Z" fill="#0D2901" mask="url(#path-2-inside-1_1_514)"/>
</svg>
