<svg width="43" height="43" viewBox="0 0 43 43" fill="none" xmlns="http://www.w3.org/2000/svg">
<path d="M0 3.07987C0 1.37869 1.41362 0 3.15781 0H39.8422C41.5864 0 43 1.37869 43 3.07987V39.9201C43 41.6213 41.5864 43 39.8422 43H3.15781C1.41362 43 0 41.6213 0 39.9201V3.07987ZM13.2843 35.9964V16.5792H6.83162V35.9964H13.2843ZM10.0593 13.9266C12.3088 13.9266 13.7089 12.4377 13.7089 10.5726C13.6686 8.66719 12.3114 7.21863 10.1023 7.21863C7.89319 7.21863 6.45 8.66988 6.45 10.5726C6.45 12.4377 7.85019 13.9266 10.0163 13.9266H10.0593ZM23.2496 35.9964V25.1523C23.2496 24.5718 23.2926 23.9913 23.4646 23.5774C23.9295 22.4191 24.9911 21.2178 26.7756 21.2178C29.111 21.2178 30.0436 22.9969 30.0436 25.6092V35.9964H36.4963V24.8594C36.4963 18.8931 33.3143 16.1196 29.068 16.1196C25.6441 16.1196 24.1096 18.0009 23.2496 19.3258V19.393H23.2066L23.2496 19.3258V16.5792H16.7996C16.8802 18.4013 16.7996 35.9964 16.7996 35.9964H23.2496Z" fill="white"/>
</svg>
