<svg width="45" height="45" viewBox="0 0 45 45" fill="none" xmlns="http://www.w3.org/2000/svg">
<rect x="1.5" y="1.5" width="42" height="42" rx="4.5" fill="white" stroke="#0D2901" stroke-width="3"/>
<path d="M14.2843 37.4964H14.7843V36.9964V17.5792V17.0792H14.2843H7.83162H7.33162V17.5792V36.9964V37.4964H7.83162H14.2843ZM15.2089 11.5726H15.209L15.2088 11.562C15.1862 10.4911 14.7911 9.52275 14.0666 8.82174C13.3411 8.11983 12.3193 7.71863 11.1023 7.71863C9.88652 7.71863 8.84564 8.11959 8.10469 8.81833C7.36282 9.51795 6.95 10.4902 6.95 11.5726C6.95 13.7257 8.586 15.4266 11.0163 15.4266H11.0593C12.297 15.4266 13.3384 15.0151 14.0737 14.3099C14.8087 13.605 15.2089 12.6337 15.2089 11.5726ZM24.2496 37.4964H24.7496V36.9964V26.1523C24.7496 25.5745 24.7959 25.0831 24.9263 24.7693L24.9263 24.7693L24.9286 24.7637C25.3458 23.7242 26.262 22.7178 27.7756 22.7178C28.7959 22.7178 29.4498 23.0951 29.872 23.7153C30.316 24.3675 30.5436 25.3483 30.5436 26.6092V36.9964V37.4964H31.0436H37.4963H37.9963V36.9964V25.8594C37.9963 22.7903 37.177 20.4703 35.7421 18.9133C34.3036 17.3523 32.3025 16.6196 30.068 16.6196C28.2568 16.6196 26.9175 17.1196 25.9128 17.8147C25.4552 18.1313 25.0726 18.4846 24.7496 18.8405V17.5792V17.0792H24.2496H17.7996H17.2769L17.3001 17.6013C17.3397 18.4971 17.3399 23.3333 17.3298 27.97C17.3248 30.2829 17.3172 32.5389 17.3109 34.2168C17.3078 35.0557 17.3049 35.7501 17.3029 36.2347L17.3005 36.7961L17.2998 36.9436L17.2996 36.9813L17.2996 36.9909L17.2996 36.9933L17.2996 36.9939C17.2996 36.994 17.2996 36.9941 17.7996 36.9964L17.2996 36.9941L17.2973 37.4964H17.7996H24.2496ZM1.5 4.07987C1.5 2.66654 2.67791 1.5 4.15781 1.5H40.8422C42.3221 1.5 43.5 2.66654 43.5 4.07987V40.9201C43.5 42.3335 42.3221 43.5 40.8422 43.5H4.15781C2.67791 43.5 1.5 42.3335 1.5 40.9201V4.07987Z" fill="#0D2901" stroke="#0D2901"/>
</svg>
