<svg width="13" height="11" viewBox="0 0 13 11" fill="none" xmlns="http://www.w3.org/2000/svg">
<path fill-rule="evenodd" clip-rule="evenodd" d="M10.8566 5.43001C11.328 4.9512 11.5899 4.30475 11.5846 3.63287C11.5794 2.96099 11.3074 2.31872 10.8286 1.84734C10.5915 1.61394 10.3108 1.42952 10.0025 1.30461C9.69411 1.1797 9.36417 1.11675 9.03149 1.11935C8.35961 1.1246 7.71733 1.39654 7.24596 1.87534C7.11796 2.00334 6.95529 2.16045 6.75796 2.34667L6.20929 2.86334L5.66062 2.34667C5.46284 2.16001 5.29996 2.0029 5.17196 1.87534C4.69686 1.40025 4.0525 1.13335 3.38062 1.13335C2.70874 1.13335 2.06438 1.40025 1.58929 1.87534C0.610622 2.85467 0.599289 4.43801 1.55329 5.42201L6.20929 10.078L10.8566 5.43001ZM1.02329 1.31001C1.33283 1.00039 1.70033 0.754775 2.10481 0.587204C2.50928 0.419634 2.94281 0.333385 3.38062 0.333385C3.81844 0.333385 4.25196 0.419634 4.65644 0.587204C5.06091 0.754775 5.42842 1.00039 5.73796 1.31001C5.85929 1.43178 6.0164 1.58334 6.20929 1.76467C6.40129 1.58334 6.5584 1.43156 6.68062 1.30934C7.30096 0.679451 8.14612 0.32179 9.03017 0.315039C9.91421 0.308287 10.7647 0.652999 11.3946 1.27334C12.0245 1.89368 12.3822 2.73884 12.3889 3.62288C12.3957 4.50693 12.051 5.35745 11.4306 5.98734L6.68062 10.738C6.5556 10.863 6.38607 10.9332 6.20929 10.9332C6.03251 10.9332 5.86297 10.863 5.73796 10.738L0.986622 5.98667C0.377316 5.35827 0.0396288 4.51543 0.0464892 3.64016C0.0533497 2.76489 0.404207 1.92744 1.02329 1.30867V1.31001Z" fill="#555555"/>
</svg>
