<svg width="97" height="97" viewBox="0 0 97 97" fill="none" xmlns="http://www.w3.org/2000/svg">
<path d="M39.6875 0.625C38.9968 0.625 38.3344 0.899367 37.8461 1.38774C37.3577 1.87612 37.0833 2.5385 37.0833 3.22917C37.0833 3.91983 37.3577 4.58221 37.8461 5.07059C38.3344 5.55897 38.9968 5.83333 39.6875 5.83333H42.2917V13.7526C35.8155 14.2858 29.6688 16.8328 24.7135 21.0365L24.6406 20.9583L19.1172 15.4323L20.9583 13.5911C21.4466 13.1025 21.7208 12.4399 21.7206 11.7491C21.7203 11.0583 21.4457 10.3959 20.957 9.90755C20.4684 9.41925 19.8058 9.14506 19.115 9.14531C18.4242 9.14555 17.7617 9.42021 17.2734 9.90885L9.90885 17.2734C9.6669 17.5152 9.47494 17.8023 9.34393 18.1183C9.21292 18.4342 9.14543 18.7729 9.14531 19.115C9.14518 19.457 9.21244 19.7957 9.34323 20.1118C9.47401 20.4279 9.66577 20.7151 9.90755 20.957C10.1493 21.199 10.4364 21.3909 10.7524 21.522C11.0683 21.653 11.407 21.7205 11.7491 21.7206C12.0911 21.7207 12.4299 21.6534 12.7459 21.5227C13.062 21.3919 13.3492 21.2001 13.5911 20.9583L15.4323 19.1172L20.9583 24.638L21.0365 24.7161C16.8324 29.6703 14.2845 35.8161 13.75 42.2917H5.83333V39.6875C5.83333 38.9968 5.55897 38.3344 5.07059 37.8461C4.58221 37.3577 3.91983 37.0833 3.22917 37.0833C2.5385 37.0833 1.87612 37.3577 1.38774 37.8461C0.899367 38.3344 0.625 38.9968 0.625 39.6875V50.1042C0.625 50.7948 0.899367 51.4572 1.38774 51.9456C1.87612 52.434 2.5385 52.7083 3.22917 52.7083C3.91983 52.7083 4.58221 52.434 5.07059 51.9456C5.55897 51.4572 5.83333 50.7948 5.83333 50.1042V47.5H13.7526C14.2858 53.9761 16.8328 60.1229 21.0365 65.0781L20.9583 65.151L15.4323 70.6771L13.5911 68.8359C13.1 68.3616 12.4422 68.0991 11.7594 68.105C11.0766 68.111 10.4234 68.3848 9.94058 68.8677C9.45774 69.3505 9.18386 70.0037 9.17793 70.6865C9.172 71.3693 9.43448 72.0271 9.90885 72.5182L17.2734 79.8828C17.5152 80.1248 17.8023 80.3167 18.1183 80.4477C18.4342 80.5788 18.7729 80.6462 19.115 80.6464C19.457 80.6465 19.7957 80.5792 20.1118 80.4484C20.4279 80.3177 20.7151 80.1259 20.957 79.8841C21.199 79.6423 21.3909 79.3553 21.522 79.0393C21.653 78.7233 21.7205 78.3847 21.7206 78.0426C21.7207 77.7005 21.6534 77.3618 21.5227 77.0457C21.3919 76.7297 21.2001 76.4425 20.9583 76.2005L19.1172 74.3594L24.638 68.8359L24.7161 68.7578C28.866 72.2766 33.8653 74.647 39.2161 75.6328C39.5527 75.6947 39.8981 75.6897 40.2327 75.6181C40.5672 75.5465 40.8844 75.4098 41.1662 75.2156C41.4479 75.0214 41.6886 74.7736 41.8746 74.4864C42.0605 74.1992 42.1881 73.8782 42.25 73.5417C42.3119 73.2052 42.3069 72.8597 42.2353 72.5252C42.1637 72.1906 42.0269 71.8734 41.8328 71.5917C41.6386 71.3099 41.3908 71.0692 41.1036 70.8833C40.8164 70.6973 40.4954 70.5697 40.1589 70.5078C28.0365 68.2812 18.8542 57.6589 18.8542 44.8958C18.8542 30.513 30.513 18.8542 44.8958 18.8542C57.6563 18.8542 68.2812 28.0365 70.5078 40.1563C70.5639 40.4976 70.6875 40.8244 70.8713 41.1175C71.0551 41.4106 71.2955 41.6641 71.5783 41.8632C71.8612 42.0624 72.1809 42.2032 72.5188 42.2774C72.8567 42.3516 73.206 42.3578 73.5463 42.2955C73.8866 42.2332 74.2111 42.1037 74.5008 41.9147C74.7905 41.7256 75.0396 41.4807 75.2337 41.1942C75.4277 40.9078 75.5626 40.5856 75.6307 40.2464C75.6988 39.9072 75.6986 39.5579 75.6302 39.2188C74.6453 33.866 72.2749 28.8649 68.7552 24.7135L68.7708 24.7005L68.8333 24.6406L74.3594 19.1172L76.2005 20.9583C76.6892 21.4466 77.3518 21.7208 78.0426 21.7206C78.7334 21.7203 79.3958 21.4457 79.8841 20.957C80.3724 20.4684 80.6466 19.8058 80.6464 19.115C80.6461 18.4242 80.3715 17.7617 79.8828 17.2734L72.5182 9.90885C72.2764 9.6669 71.9894 9.47494 71.6734 9.34393C71.3574 9.21292 71.0188 9.14543 70.6767 9.14531C70.3346 9.14518 69.9959 9.21244 69.6799 9.34323C69.3638 9.47401 69.0766 9.66577 68.8346 9.90755C68.5927 10.1493 68.4007 10.4364 68.2697 10.7524C68.1387 11.0683 68.0712 11.407 68.0711 11.7491C68.071 12.0911 68.1382 12.4299 68.269 12.7459C68.3998 13.062 68.5916 13.3492 68.8333 13.5911L70.6771 15.4323L65.151 20.9583L65.0781 21.0365C60.1232 16.8319 53.9764 14.2839 47.5 13.75V5.83333H50.1042C50.7948 5.83333 51.4572 5.55897 51.9456 5.07059C52.434 4.58221 52.7083 3.91983 52.7083 3.22917C52.7083 2.5385 52.434 1.87612 51.9456 1.38774C51.4572 0.899367 50.7948 0.625 50.1042 0.625H39.6875Z" fill="#0D2901"/>
<path fill-rule="evenodd" clip-rule="evenodd" d="M26.6666 38.3855C26.6666 35.9681 27.6269 33.6498 29.3362 31.9405C31.0455 30.2312 33.3639 29.2709 35.7812 29.2709C38.1985 29.2709 40.5169 30.2312 42.2262 31.9405C43.9355 33.6498 44.8958 35.9681 44.8958 38.3855C44.8958 40.8028 43.9355 43.1211 42.2262 44.8304C40.5169 46.5398 38.1985 47.5 35.7812 47.5C33.3639 47.5 31.0455 46.5398 29.3362 44.8304C27.6269 43.1211 26.6666 40.8028 26.6666 38.3855ZM35.7812 34.4792C34.7452 34.4792 33.7516 34.8908 33.0191 35.6233C32.2865 36.3559 31.875 37.3495 31.875 38.3855C31.875 39.4215 32.2865 40.415 33.0191 41.1476C33.7516 41.8802 34.7452 42.2917 35.7812 42.2917C36.8172 42.2917 37.8108 41.8802 38.5433 41.1476C39.2759 40.415 39.6875 39.4215 39.6875 38.3855C39.6875 37.3495 39.2759 36.3559 38.5433 35.6233C37.8108 34.8908 36.8172 34.4792 35.7812 34.4792ZM67.0312 44.8959C63.5015 44.8962 60.023 45.7406 56.886 47.3586C53.749 48.9767 51.0445 51.3214 48.998 54.1973C46.9515 57.0732 45.6224 60.3968 45.1216 63.8908C44.6208 67.3848 44.9628 70.9479 46.1192 74.2828C47.2755 77.6177 49.2126 80.6278 51.7688 83.0618C54.325 85.4959 57.4263 87.2833 60.8138 88.275C64.2013 89.2668 67.7769 89.434 71.2422 88.7628C74.7075 88.0917 77.9621 86.6015 80.7343 84.4167L92.5312 96.2162C93.0195 96.7048 93.6819 96.9795 94.3727 96.9797C95.0635 96.98 95.7262 96.7058 96.2148 96.2175C96.7034 95.7292 96.9781 95.0668 96.9783 94.376C96.9786 93.6852 96.7044 93.0225 96.2161 92.5339L84.4166 80.7344C86.9895 77.4704 88.5915 73.548 89.0393 69.416C89.487 65.284 88.7625 61.1095 86.9485 57.3701C85.1345 53.6307 82.3043 50.4775 78.782 48.2715C75.2596 46.0654 71.1874 44.8956 67.0312 44.8959ZM50.1041 67.0313C50.1041 62.542 51.8875 58.2365 55.062 55.062C58.2364 51.8876 62.5419 50.1042 67.0312 50.1042C71.5205 50.1042 75.826 51.8876 79.0005 55.062C82.1749 58.2365 83.9583 62.542 83.9583 67.0313C83.9583 71.5206 82.1749 75.8261 79.0005 79.0005C75.826 82.175 71.5205 83.9584 67.0312 83.9584C62.5419 83.9584 58.2364 82.175 55.062 79.0005C51.8875 75.8261 50.1041 71.5206 50.1041 67.0313Z" fill="#0D2901"/>
</svg>
