<svg width="14" height="14" viewBox="0 0 14 14" fill="none" xmlns="http://www.w3.org/2000/svg">
<path d="M6.6001 4.2001C6.6001 4.09401 6.55796 3.99227 6.48294 3.91726C6.40793 3.84224 6.30618 3.8001 6.2001 3.8001C6.09401 3.8001 5.99227 3.84224 5.91725 3.91726C5.84224 3.99227 5.8001 4.09401 5.8001 4.2001V5.8001H4.2001C4.09401 5.8001 3.99227 5.84224 3.91726 5.91725C3.84224 5.99227 3.8001 6.09401 3.8001 6.2001C3.8001 6.30618 3.84224 6.40793 3.91726 6.48294C3.99227 6.55796 4.09401 6.6001 4.2001 6.6001H5.8001V8.2001C5.8001 8.30618 5.84224 8.40793 5.91725 8.48294C5.99227 8.55796 6.09401 8.6001 6.2001 8.6001C6.30618 8.6001 6.40793 8.55796 6.48294 8.48294C6.55796 8.40793 6.6001 8.30618 6.6001 8.2001V6.6001H8.2001C8.30618 6.6001 8.40793 6.55796 8.48294 6.48294C8.55796 6.40793 8.6001 6.30618 8.6001 6.2001C8.6001 6.09401 8.55796 5.99227 8.48294 5.91725C8.40793 5.84224 8.30618 5.8001 8.2001 5.8001H6.6001V4.2001ZM2.6001 0.600098C2.06966 0.600098 1.56096 0.810811 1.18588 1.18588C0.810811 1.56096 0.600098 2.06966 0.600098 2.6001V9.8001C0.600098 10.3305 0.810811 10.8392 1.18588 11.2143C1.56096 11.5894 2.06966 11.8001 2.6001 11.8001H9.8001C10.3305 11.8001 10.8392 11.5894 11.2143 11.2143C11.5894 10.8392 11.8001 10.3305 11.8001 9.8001V2.6001C11.8001 2.06966 11.5894 1.56096 11.2143 1.18588C10.8392 0.810811 10.3305 0.600098 9.8001 0.600098H2.6001ZM1.4001 2.6001C1.4001 2.28184 1.52653 1.97661 1.75157 1.75157C1.97661 1.52653 2.28184 1.4001 2.6001 1.4001H9.8001C10.1184 1.4001 10.4236 1.52653 10.6486 1.75157C10.8737 1.97661 11.0001 2.28184 11.0001 2.6001V9.8001C11.0001 10.1184 10.8737 10.4236 10.6486 10.6486C10.4236 10.8737 10.1184 11.0001 9.8001 11.0001H2.6001C2.28184 11.0001 1.97661 10.8737 1.75157 10.6486C1.52653 10.4236 1.4001 10.1184 1.4001 9.8001V2.6001ZM5.0001 13.4001C4.26725 13.4002 3.56356 13.113 3.0401 12.6001H10.6001C11.1305 12.6001 11.6392 12.3894 12.0143 12.0143C12.3894 11.6392 12.6001 11.1305 12.6001 10.6001V3.0401C13.0953 3.5457 13.4001 4.2369 13.4001 5.0001V10.6001C13.4001 11.3427 13.1051 12.0549 12.58 12.58C12.0549 13.1051 11.3427 13.4001 10.6001 13.4001H5.0001Z" fill="#555555"/>
</svg>
