<svg width="15" height="14" viewBox="0 0 15 14" fill="none" xmlns="http://www.w3.org/2000/svg">
<path d="M10.33 9.83798L14.827 5.41498L14.884 5.34998C14.9678 5.23644 15.0081 5.09664 14.9977 4.95592C14.9872 4.8152 14.9267 4.68289 14.827 4.58298L10.33 0.161981L10.268 0.108981C9.908 -0.161019 9.378 0.0989811 9.378 0.577981V2.70798L9.153 2.72298C5.59 3.00498 3.503 5.25998 3.005 9.34998C2.941 9.87498 3.543 10.204 3.933 9.85598C5.364 8.57798 6.843 7.78398 8.378 7.46598C8.624 7.41465 8.87133 7.37565 9.12 7.34898L9.378 7.32598V9.42198L9.383 9.50398C9.443 9.95698 9.992 10.17 10.33 9.83798ZM9.226 3.71998L10.378 3.64298V1.60998L13.824 4.99798L10.378 8.38798V6.23098L9.022 6.35298H9.014C7.311 6.53598 5.704 7.21798 4.187 8.35498C4.485 7.01598 4.994 6.00898 5.663 5.28798C6.493 4.39298 7.653 3.84598 9.226 3.71998ZM2.5 0.999981C1.83696 0.999981 1.20107 1.26337 0.732233 1.73221C0.263392 2.20106 0 2.83694 0 3.49998V11.5C0 12.163 0.263392 12.7989 0.732233 13.2677C1.20107 13.7366 1.83696 14 2.5 14H10.5C11.163 14 11.7989 13.7366 12.2678 13.2677C12.7366 12.7989 13 12.163 13 11.5V10.5C13 10.3674 12.9473 10.2402 12.8536 10.1464C12.7598 10.0527 12.6326 9.99998 12.5 9.99998C12.3674 9.99998 12.2402 10.0527 12.1464 10.1464C12.0527 10.2402 12 10.3674 12 10.5V11.5C12 11.8978 11.842 12.2793 11.5607 12.5606C11.2794 12.8419 10.8978 13 10.5 13H2.5C2.10218 13 1.72064 12.8419 1.43934 12.5606C1.15804 12.2793 1 11.8978 1 11.5V3.49998C1 3.10216 1.15804 2.72063 1.43934 2.43932C1.72064 2.15802 2.10218 1.99998 2.5 1.99998H5.5C5.63261 1.99998 5.75979 1.9473 5.85355 1.85353C5.94732 1.75977 6 1.63259 6 1.49998C6 1.36737 5.94732 1.2402 5.85355 1.14643C5.75979 1.05266 5.63261 0.999981 5.5 0.999981H2.5Z" fill="#333333"/>
</svg>
