<svg width="21" height="18" viewBox="0 0 21 18" fill="none" xmlns="http://www.w3.org/2000/svg">
<path d="M4.98632 7.43781L6.04167 8.05239C6.71443 8.44501 7.04985 8.64107 7.23534 8.96234C7.42083 9.28361 7.4229 9.67213 7.42585 10.4499L7.43112 11.6723C7.44696 15.1529 7.45453 16.8926 8.41185 17.2062C9.36967 17.518 10.4027 16.1164 12.4664 13.3145L18.1317 5.62157C19.7523 3.42177 20.5628 2.32092 20.1068 1.53102C19.6507 0.741128 18.2921 0.892658 15.5767 1.19623L6.08177 2.256C2.62344 2.64228 0.893069 2.83612 0.684166 3.82151C0.476471 4.8062 1.97929 5.6826 4.98632 7.43781Z" stroke="#0D2901"/>
</svg>
