<svg width="21" height="18" viewBox="0 0 21 18" fill="none" xmlns="http://www.w3.org/2000/svg">
<path d="M4.98607 7.23204L6.04143 7.84663C6.71418 8.23925 7.04961 8.43531 7.2351 8.75658C7.42058 9.07785 7.42266 9.46636 7.4256 10.2441L7.43087 11.4666C7.44672 14.9471 7.45429 16.6868 8.4116 17.0005C9.36942 17.3123 10.4025 15.9106 12.4662 13.1088L18.1314 5.41581C19.752 3.21601 20.5626 2.11515 20.1065 1.32526C19.6505 0.535363 18.2918 0.686893 15.5765 0.990464L6.08152 2.05024C2.6232 2.43652 0.892825 2.63036 0.683922 3.61574C0.476227 4.60043 1.97904 5.47683 4.98607 7.23204Z" stroke="white"/>
</svg>
